<?xml version="1.0" encoding="UTF-8" standalone="no"?>
<!-- Created with Inkscape (http://www.inkscape.org/) -->

<svg
   xmlns:dc="http://purl.org/dc/elements/1.1/"
   xmlns:cc="http://creativecommons.org/ns#"
   xmlns:rdf="http://www.w3.org/1999/02/22-rdf-syntax-ns#"
   xmlns:svg="http://www.w3.org/2000/svg"
   xmlns="http://www.w3.org/2000/svg"
   xmlns:sodipodi="http://sodipodi.sourceforge.net/DTD/sodipodi-0.dtd"
   xmlns:inkscape="http://www.inkscape.org/namespaces/inkscape"
   width="96.622955mm"
   height="56.93679mm"
   viewBox="0 0 342.3648 201.74453"
   id="svg4048"
   version="1.1"
   inkscape:version="0.91 r"
   sodipodi:docname="drawing.svg">
  <defs
     id="defs4050" />
  <sodipodi:namedview
     id="base"
     pagecolor="#ffffff"
     bordercolor="#666666"
     borderopacity="1.0"
     inkscape:pageopacity="0.0"
     inkscape:pageshadow="2"
     inkscape:zoom="1.979899"
     inkscape:cx="226.18048"
     inkscape:cy="58.363527"
     inkscape:document-units="px"
     inkscape:current-layer="layer1"
     showgrid="false"
     fit-margin-top="0"
     fit-margin-left="0"
     fit-margin-right="0"
     fit-margin-bottom="0"
     inkscape:window-width="1920"
     inkscape:window-height="1056"
     inkscape:window-x="0"
     inkscape:window-y="24"
     inkscape:window-maximized="1" />
  <metadata
     id="metadata4053">
    <rdf:RDF>
      <cc:Work
         rdf:about="">
        <dc:format>image/svg+xml</dc:format>
        <dc:type
           rdf:resource="http://purl.org/dc/dcmitype/StillImage" />
        <dc:title />
      </cc:Work>
    </rdf:RDF>
  </metadata>
  <g
     inkscape:label="Layer 1"
     inkscape:groupmode="layer"
     id="layer1"
     transform="translate(-168.8176,-117.20423)">
    <path
       inkscape:connector-curvature="0"
       id="path174"
       style="fill:none;stroke:#000000;stroke-width:0.33625001;stroke-linecap:round;stroke-linejoin:round;stroke-miterlimit:10;stroke-dasharray:none;stroke-opacity:1"
       d="m 440.90739,283.79872 27.975,0 0,-161.775 -27.975,0 0,161.775 z" />
    <path
       inkscape:connector-curvature="0"
       id="path176"
       style="fill:none;stroke:#000000;stroke-width:1.00999999;stroke-linecap:round;stroke-linejoin:round;stroke-miterlimit:10;stroke-dasharray:none;stroke-opacity:1"
       d="m 245.83239,283.79872 c 32.20375,-36.42751 65.94375,-71.48751 100.875,-105.30001 19.465,-18.96625 39.4175,-37.41875 58.8,-56.475 m -159.675,161.775 251.325,0 0,-161.775 -251.325,0 0,161.775 z" />
    <path
       inkscape:connector-curvature="0"
       id="path178"
       style="fill:none;stroke:#000000;stroke-width:0.33625001;stroke-linecap:round;stroke-linejoin:round;stroke-miterlimit:10;stroke-dasharray:none;stroke-opacity:1"
       d="m 273.73239,283.79872 27.825,0 0,-161.775 -27.825,0 0,161.775 z m -27.9,-134.77501 251.325,0 0,-27 -251.325,0 0,27 z m 0,53.925 251.325,0 0,-26.925 -251.325,0 0,26.925 z m 0,53.775 251.325,0 0,-27 -251.325,0 0,27 z m 0,27.07501 0,-27.07501 -3,0 m 0.675,21.675 2.325,0 m -2.325,-5.4 2.325,0 m -2.325,-5.39999 2.325,0 m -2.325,-5.47501 2.325,0 m 0,-5.39999 0,-27 -3,0 m 0.675,21.6 2.325,0 m -2.325,-5.4 2.325,0 m -2.325,-5.4 2.325,0 m -2.325,-5.4 2.325,0 m 0,-5.175 0,-27 -3,0 m 0.675,21.6 2.325,0 m -2.325,-5.4 2.325,0 m -2.325,-5.4 2.325,0 m -2.325,-5.4 2.325,0 m 0,-5.4 0,-26.925 -3,0 m 0.675,21.525 2.325,0 m -2.325,-5.4 2.325,0 m -2.325,-5.325 2.325,0 m -2.325,-5.4 2.325,0 m 0,-5.4 0,-27 -3,0 m 0.675,21.6 2.325,0 m -2.325,-5.4 2.325,0 m -2.325,-5.4 2.325,0 m -2.325,-5.4 2.325,0 m 0,-5.4 0,-27 -3,0 m 0.675,21.6 2.325,0 m -2.325,-5.4 2.325,0 m -2.325,-5.4 2.325,0 m -2.325,-5.4 2.325,0" />
    <text
       id="text182"
       style="font-variant:normal;font-weight:normal;font-stretch:normal;font-size:10.7941246px;font-family:'Times New Roman';-inkscape-font-specification:TimesNewRomanPSMT;writing-mode:lr-tb;fill:#000000;fill-opacity:1;fill-rule:nonzero;stroke:none"
       x="241.48239"
       y="296.54871">
      <tspan
         id="tspan184"
         sodipodi:role="line"
         y="296.54871"
         x="241.48239 246.88162 265.70441 271.10364 276.50287 295.40012 300.79935 306.12408 322.32175 327.72098 333.12021 351.94299 357.34222 362.74142 381.48975 386.88898 392.28818 411.11102 416.51022 421.90942 438.03262 443.43182 448.83109 465.02875 470.42795 475.75269 491.95035 497.34958">0 10 20 30 40 50 60 70 80 90</tspan>
    </text>
    <text
       id="text186"
       style="font-variant:normal;font-weight:normal;font-stretch:normal;font-size:13.38012505px;font-family:'Times New Roman';-inkscape-font-specification:TimesNewRomanPSMT;writing-mode:lr-tb;fill:#000000;fill-opacity:1;fill-rule:nonzero;stroke:none"
       x="181.18239"
       y="205.8736">
      <tspan
         id="tspan188"
         sodipodi:role="line"
         y="205.8736"
         x="181.18239 185.98184 192.73212 198.58458 205.185">[deg]</tspan>
    </text>
    <text
       id="text190"
       style="font-style:italic;font-variant:normal;font-weight:normal;font-stretch:normal;font-size:10.68162441px;font-family:'Times New Roman';-inkscape-font-specification:TimesNewRomanPS-ItalicMT;writing-mode:lr-tb;fill:#000000;fill-opacity:1;fill-rule:nonzero;stroke:none"
       x="174.8824"
       y="209.17358">
      <tspan
         id="tspan192"
         y="209.17358"
         x="174.8824">i</tspan>
    </text>
    <text
       id="text194"
       style="font-variant:normal;font-weight:normal;font-stretch:normal;font-size:13.38012505px;font-family:Symbol;-inkscape-font-specification:SymbolMT;writing-mode:lr-tb;fill:#000000;fill-opacity:1;fill-rule:nonzero;stroke:none"
       x="168.28239"
       y="205.8736">
      <tspan
         id="tspan196"
         y="205.8736"
         x="168.28239">δ</tspan>
    </text>
    <text
       id="text198"
       style="font-variant:normal;font-weight:normal;font-stretch:normal;font-size:10.7941246px;font-family:'Times New Roman';-inkscape-font-specification:TimesNewRomanPSMT;writing-mode:lr-tb;fill:#000000;fill-opacity:1;fill-rule:nonzero;stroke:none"
       x="231.28239"
       y="124.4987">
      <tspan
         id="tspan200"
         sodipodi:role="line"
         y="124.4987"
         x="231.28239 236.68271">50</tspan>
    </text>
    <text
       id="text202"
       style="font-variant:normal;font-weight:normal;font-stretch:normal;font-size:10.7941246px;font-family:'Times New Roman';-inkscape-font-specification:TimesNewRomanPSMT;writing-mode:lr-tb;fill:#000000;fill-opacity:1;fill-rule:nonzero;stroke:none"
       x="217.78218"
       y="151.79816">
      <tspan
         id="tspan204"
         sodipodi:role="line"
         y="151.79816"
         x="217.78218 223.18248 228.58278 231.28455 236.68486">41.66</tspan>
    </text>
    <text
       id="text206"
       style="font-variant:normal;font-weight:normal;font-stretch:normal;font-size:10.7941246px;font-family:'Times New Roman';-inkscape-font-specification:TimesNewRomanPSMT;writing-mode:lr-tb;fill:#000000;fill-opacity:1;fill-rule:nonzero;stroke:none"
       x="217.78218"
       y="179.24759">
      <tspan
         id="tspan208"
         sodipodi:role="line"
         y="179.24759"
         x="217.78218 223.18248 228.58278 231.28455 236.68486">33.33</tspan>
    </text>
    <text
       id="text210"
       style="font-variant:normal;font-weight:normal;font-stretch:normal;font-size:10.7941246px;font-family:'Times New Roman';-inkscape-font-specification:TimesNewRomanPSMT;writing-mode:lr-tb;fill:#000000;fill-opacity:1;fill-rule:nonzero;stroke:none"
       x="231.28239"
       y="206.69705">
      <tspan
         id="tspan212"
         sodipodi:role="line"
         y="206.69705"
         x="231.28239 236.68271">25</tspan>
    </text>
    <text
       id="text214"
       style="font-variant:normal;font-weight:normal;font-stretch:normal;font-size:10.7941246px;font-family:'Times New Roman';-inkscape-font-specification:TimesNewRomanPSMT;writing-mode:lr-tb;fill:#000000;fill-opacity:1;fill-rule:nonzero;stroke:none"
       x="217.78218"
       y="233.99648">
      <tspan
         id="tspan216"
         sodipodi:role="line"
         y="233.99648"
         x="217.78218 223.18248 228.58278 231.28455 236.68486">16.66</tspan>
    </text>
    <text
       id="text218"
       style="font-variant:normal;font-weight:normal;font-stretch:normal;font-size:10.7941246px;font-family:'Times New Roman';-inkscape-font-specification:TimesNewRomanPSMT;writing-mode:lr-tb;fill:#000000;fill-opacity:1;fill-rule:nonzero;stroke:none"
       x="223.18248"
       y="261.44595">
      <tspan
         id="tspan220"
         sodipodi:role="line"
         y="261.44595"
         x="223.18248 228.58278 231.28455 236.68486">8.33</tspan>
    </text>
    <text
       id="text222"
       style="font-variant:normal;font-weight:normal;font-stretch:normal;font-size:10.7941246px;font-family:'Times New Roman';-inkscape-font-specification:TimesNewRomanPSMT;writing-mode:lr-tb;fill:#000000;fill-opacity:1;fill-rule:nonzero;stroke:none"
       x="236.53265"
       y="288.89542">
      <tspan
         id="tspan224"
         y="288.89542"
         x="236.53265">0</tspan>
    </text>
    <path
       inkscape:connector-curvature="0"
       id="path226"
       style="fill:#ffffff;fill-opacity:1;fill-rule:nonzero;stroke:none"
       d="m 342.43239,138.52372 55.425,0 0,-11.775 -55.425,0 0,11.775 z" />
    <text
       id="text228"
       style="font-style:italic;font-variant:normal;font-weight:normal;font-stretch:normal;font-size:12.14349937px;font-family:'Times New Roman';-inkscape-font-specification:TimesNewRomanPS-ItalicMT;writing-mode:lr-tb;fill:#000000;fill-opacity:1;fill-rule:nonzero;stroke:none"
       x="351.2074"
       y="136.27371">
      <tspan
         id="tspan230"
         sodipodi:role="line"
         y="136.27371"
         x="351.2074 359.15775 362.52756 365.8974 374.08817 380.013 383.08774">w/l=0.2</tspan>
    </text>
    <path
       inkscape:connector-curvature="0"
       id="path232"
       style="fill:none;stroke:#000000;stroke-width:1.00999999;stroke-linecap:round;stroke-linejoin:round;stroke-miterlimit:10;stroke-dasharray:none;stroke-opacity:1"
       d="m 245.83239,283.79872 c 19.53875,-21.78501 40.13,-42.51626 61.8,-62.17501 17.85,-16.23125 36.0375,-31.06125 55.125,-45.825 22.88375,-17.5375 45.1525,-35.57625 67.5,-53.775 m -184.425,161.775 c 32.64375,-37.49125 72.13,-68.355 113.55,-95.55 33.68125,-21.67625 66.8875,-43.195 99.675,-66.225 m -213.225,161.775 c 29.68,-33.98125 66.18,-60.30625 105.225,-82.5 46.35,-26.63 94.73,-49.4375 139.275,-79.275 m -244.5,161.775 c 29.08875,-33.725 68.62625,-58.195 108.3,-77.55 47.265,-23.25375 97.24375,-41.83 143.025,-68.25 m -251.325,145.8 c 28.49875,-34.1675 73.015,-57.1225 113.25,-73.95 45.41875,-19.44 93.34625,-34.0075 138.075,-55.125 m -251.325,129.075 c 27.02375,-31.4825 66.48875,-51.19 104.7,-65.625 48.30375,-18 98.515,-30.8525 146.625,-49.725 m -251.325,115.35 c 27.85625,-33.435 75.18875,-52.07875 115.425,-64.95 44.91375,-14.33375 91.2425,-23.855 135.9,-39 m -251.325,103.95 c 24.4875,-29.83875 68.78125,-45.01125 104.925,-54.6 48.39125,-12.32125 97.8025,-20.06 146.4,-31.5 m -251.325,86.1 c 23.28625,-28.94875 69.8075,-41.22125 104.55,-48.975 24.33875,-5.43 49.06125,-8.77 73.65,-12.825 24.3975,-3.625 48.76375,-7.60875 73.125,-11.475 m -251.325,73.275 c 25.26375,-31.17125 81.485,-42.36125 118.8,-49.125 44.08125,-6.96 88.37625,-12.4725 132.525,-18.975 m -251.325,68.1 c 21.7325,-24.87375 58.0675,-33.55125 89.1,-39.9 28.12375,-5.145 56.615,-7.79625 84.975,-11.25 25.7475,-2.88875 51.45625,-6.15375 77.25,-8.625" />
    <text
       id="text234"
       style="font-variant:normal;font-weight:normal;font-stretch:normal;font-size:13.38012505px;font-family:'Times New Roman';-inkscape-font-specification:TimesNewRomanPSMT;writing-mode:lr-tb;fill:#000000;fill-opacity:1;fill-rule:nonzero;stroke:none"
       x="378.13242"
       y="315.44861">
      <tspan
         id="tspan236"
         sodipodi:role="line"
         y="315.44861"
         x="378.13242 382.85693 389.6821 395.53458 402.06006">[deg]</tspan>
    </text>
    <text
       id="text238"
       style="font-style:italic;font-variant:normal;font-weight:normal;font-stretch:normal;font-size:10.68162441px;font-family:'Times New Roman';-inkscape-font-specification:TimesNewRomanPS-ItalicMT;writing-mode:lr-tb;fill:#000000;fill-opacity:1;fill-rule:nonzero;stroke:none"
       x="369.50739"
       y="318.82358">
      <tspan
         id="tspan240"
         y="318.82358"
         x="369.50739">o</tspan>
    </text>
    <text
       id="text242"
       style="font-variant:normal;font-weight:normal;font-stretch:normal;font-size:13.38012505px;font-family:Symbol;-inkscape-font-specification:SymbolMT;writing-mode:lr-tb;fill:#000000;fill-opacity:1;fill-rule:nonzero;stroke:none"
       x="362.75739"
       y="315.44861">
      <tspan
         id="tspan244"
         y="315.44861"
         x="362.75739">δ</tspan>
    </text>
    <path
       inkscape:connector-curvature="0"
       id="path246"
       style="fill:#ffffff;fill-opacity:1;fill-rule:nonzero;stroke:none"
       d="m 402.58239,140.24871 28.575,0 0,-13.49999 -28.575,0 0,13.49999 z" />
    <text
       id="text248"
       style="font-style:italic;font-variant:normal;font-weight:normal;font-stretch:normal;font-size:12.14349937px;font-family:'Times New Roman';-inkscape-font-specification:TimesNewRomanPS-ItalicMT;writing-mode:lr-tb;fill:#000000;fill-opacity:1;fill-rule:nonzero;stroke:none"
       x="409.3324"
       y="137.09872">
      <tspan
         id="tspan250"
         sodipodi:role="line"
         y="137.09872"
         x="409.3324 415.40778 418.33316">0.4</tspan>
    </text>
    <path
       inkscape:connector-curvature="0"
       id="path252"
       style="fill:#ffffff;fill-opacity:1;fill-rule:nonzero;stroke:none"
       d="m 429.20739,140.24871 28.5,0 0,-13.49999 -28.5,0 0,13.49999 z" />
    <text
       id="text254"
       style="font-style:italic;font-variant:normal;font-weight:normal;font-stretch:normal;font-size:12.14349937px;font-family:'Times New Roman';-inkscape-font-specification:TimesNewRomanPS-ItalicMT;writing-mode:lr-tb;fill:#000000;fill-opacity:1;fill-rule:nonzero;stroke:none"
       x="435.9574"
       y="137.09872">
      <tspan
         id="tspan256"
         sodipodi:role="line"
         y="137.09872"
         x="435.9574 442.03281 444.95816">0.6</tspan>
    </text>
    <path
       inkscape:connector-curvature="0"
       id="path258"
       style="fill:#ffffff;fill-opacity:1;fill-rule:nonzero;stroke:none"
       d="m 456.80739,140.47372 28.575,0 0,-13.5 -28.575,0 0,13.5 z" />
    <text
       id="text260"
       style="font-style:italic;font-variant:normal;font-weight:normal;font-stretch:normal;font-size:12.14349937px;font-family:'Times New Roman';-inkscape-font-specification:TimesNewRomanPS-ItalicMT;writing-mode:lr-tb;fill:#000000;fill-opacity:1;fill-rule:nonzero;stroke:none"
       x="463.48239"
       y="137.32372">
      <tspan
         id="tspan262"
         sodipodi:role="line"
         y="137.32372"
         x="463.48239 469.53714 472.55603">0.8</tspan>
    </text>
    <path
       inkscape:connector-curvature="0"
       id="path264"
       style="fill:#ffffff;fill-opacity:1;fill-rule:nonzero;stroke:none"
       d="m 461.53239,156.52371 28.575,0 0,-13.5 -28.575,0 0,13.5 z" />
    <text
       id="text266"
       style="font-style:italic;font-variant:normal;font-weight:normal;font-stretch:normal;font-size:12.14349937px;font-family:'Times New Roman';-inkscape-font-specification:TimesNewRomanPS-ItalicMT;writing-mode:lr-tb;fill:#000000;fill-opacity:1;fill-rule:nonzero;stroke:none"
       x="468.28238"
       y="153.3737">
      <tspan
         id="tspan268"
         sodipodi:role="line"
         y="153.3737"
         x="468.28238 474.2995 477.2807">1.0</tspan>
    </text>
    <path
       inkscape:connector-curvature="0"
       id="path270"
       style="fill:#ffffff;fill-opacity:1;fill-rule:nonzero;stroke:none"
       d="m 461.75739,169.79872 28.575,0 0,-13.5 -28.575,0 0,13.5 z" />
    <text
       id="text272"
       style="font-style:italic;font-variant:normal;font-weight:normal;font-stretch:normal;font-size:12.14349937px;font-family:'Times New Roman';-inkscape-font-specification:TimesNewRomanPS-ItalicMT;writing-mode:lr-tb;fill:#000000;fill-opacity:1;fill-rule:nonzero;stroke:none"
       x="468.4324"
       y="166.64871">
      <tspan
         id="tspan274"
         sodipodi:role="line"
         y="166.64871"
         x="468.4324 474.48712 477.50601">1.2</tspan>
    </text>
    <path
       inkscape:connector-curvature="0"
       id="path276"
       style="fill:#ffffff;fill-opacity:1;fill-rule:nonzero;stroke:none"
       d="m 461.30739,182.39871 28.575,0 0,-13.5 -28.575,0 0,13.5 z" />
    <text
       id="text278"
       style="font-style:italic;font-variant:normal;font-weight:normal;font-stretch:normal;font-size:12.14349937px;font-family:'Times New Roman';-inkscape-font-specification:TimesNewRomanPS-ItalicMT;writing-mode:lr-tb;fill:#000000;fill-opacity:1;fill-rule:nonzero;stroke:none"
       x="468.05737"
       y="179.24872">
      <tspan
         id="tspan280"
         sodipodi:role="line"
         y="179.24872"
         x="468.05737 474.11215 477.13101">1.4</tspan>
    </text>
    <path
       inkscape:connector-curvature="0"
       id="path282"
       style="fill:#ffffff;fill-opacity:1;fill-rule:nonzero;stroke:none"
       d="m 461.53239,193.49871 28.575,0 0,-13.425 -28.575,0 0,13.425 z" />
    <text
       id="text284"
       style="font-style:italic;font-variant:normal;font-weight:normal;font-stretch:normal;font-size:12.14349937px;font-family:'Times New Roman';-inkscape-font-specification:TimesNewRomanPS-ItalicMT;writing-mode:lr-tb;fill:#000000;fill-opacity:1;fill-rule:nonzero;stroke:none"
       x="468.28238"
       y="190.34871">
      <tspan
         id="tspan286"
         sodipodi:role="line"
         y="190.34871"
         x="468.28238 474.2995 477.2807">1.6</tspan>
    </text>
    <path
       inkscape:connector-curvature="0"
       id="path288"
       style="fill:#ffffff;fill-opacity:1;fill-rule:nonzero;stroke:none"
       d="m 468.20739,207.44871 28.5,0 0,-13.5 -28.5,0 0,13.5 z" />
    <text
       id="text290"
       style="font-style:italic;font-variant:normal;font-weight:normal;font-stretch:normal;font-size:13.41300011px;font-family:'Times New Roman';-inkscape-font-specification:TimesNewRomanPS-ItalicMT;writing-mode:lr-tb;fill:#000000;fill-opacity:1;fill-rule:nonzero;stroke:none"
       x="474.0574"
       y="204.67372">
      <tspan
         id="tspan292"
         sodipodi:role="line"
         y="204.67372"
         x="474.0574 480.75854 484.10641">2.0</tspan>
    </text>
    <path
       inkscape:connector-curvature="0"
       id="path294"
       style="fill:none;stroke:#000000;stroke-width:1.00999999;stroke-linecap:round;stroke-linejoin:round;stroke-miterlimit:10;stroke-dasharray:none;stroke-opacity:1"
       d="m 245.83239,283.79872 c 23.21625,-27.43626 60.4175,-43.64126 93.9,-54.52501 51.56625,-16.03875 105.39625,-25.03625 157.425,-39.825 m -251.325,94.35001 c 11.93375,-14.54626 28.02125,-24.45376 44.925,-32.25001 22.89375,-10.24375 46.18375,-16.5525 70.65,-21.9 45.02625,-9.50625 90.7175,-15.815 135.75,-25.125" />
    <path
       inkscape:connector-curvature="0"
       id="path296"
       style="fill:#ffffff;fill-opacity:1;fill-rule:nonzero;stroke:none"
       d="m 445.45739,243.34872 50.01916,0 0,-11.85 -50.01916,0 0,11.85 z" />
    <text
       id="text298"
       style="font-style:italic;font-variant:normal;font-weight:normal;font-stretch:normal;font-size:12.14349937px;font-family:'Times New Roman';-inkscape-font-specification:TimesNewRomanPS-ItalicMT;writing-mode:lr-tb;fill:#000000;fill-opacity:1;fill-rule:nonzero;stroke:none"
       x="452.23239"
       y="241.09859">
      <tspan
         id="tspan300"
         sodipodi:role="line"
         y="241.09859"
         x="452.23239 460.33331 463.71042 467.08752 475.1897 481.18979 484.2645">w/l=3.0</tspan>
    </text>
    <path
       inkscape:connector-curvature="0"
       id="path302"
       style="fill:#808080;fill-opacity:1;fill-rule:evenodd;stroke:none"
       d="m 274.18239,145.49871 7.425,-1.34999 -3.3,-18.675 -7.5,1.275 3.375,18.74999" />
    <path
       inkscape:connector-curvature="0"
       id="path304"
       style="fill:none;stroke:#000000;stroke-width:1.00999999;stroke-linecap:round;stroke-linejoin:round;stroke-miterlimit:10;stroke-dasharray:none;stroke-opacity:1"
       d="m 274.18239,145.49871 7.425,-1.34999 -3.3,-18.675 -7.5,1.275 3.375,18.74999 z" />
    <path
       inkscape:connector-curvature="0"
       id="path306"
       style="fill:#808080;fill-opacity:1;fill-rule:evenodd;stroke:none"
       d="m 255.95739,145.64872 7.425,-1.95001 -4.95,-18.44999 -7.425,2.025 4.95,18.375" />
    <path
       inkscape:connector-curvature="0"
       id="path308"
       style="fill:none;stroke:#000000;stroke-width:1.00999999;stroke-linecap:round;stroke-linejoin:round;stroke-miterlimit:10;stroke-dasharray:none;stroke-opacity:1"
       d="m 255.95739,145.64872 7.425,-1.95001 -4.95,-18.44999 -7.425,2.025 4.95,18.375 z" />
    <path
       inkscape:connector-curvature="0"
       id="path310"
       style="fill:#808080;fill-opacity:1;fill-rule:nonzero;stroke:none"
       d="m 272.45739,238.27371 7.575,0 0,-18.97499 -7.575,0 0,18.97499 z" />
    <path
       inkscape:connector-curvature="0"
       id="path312"
       style="fill:none;stroke:#000000;stroke-width:1.00999999;stroke-linecap:round;stroke-linejoin:round;stroke-miterlimit:10;stroke-dasharray:none;stroke-opacity:1"
       d="m 272.45739,238.27371 7.575,0 0,-18.97499 -7.575,0 0,18.97499 z" />
    <path
       inkscape:connector-curvature="0"
       id="path314"
       style="fill:#808080;fill-opacity:1;fill-rule:nonzero;stroke:none"
       d="m 253.40739,238.27371 7.65,0 0,-18.97499 -7.65,0 0,18.97499 z" />
    <path
       inkscape:connector-curvature="0"
       id="path316"
       style="fill:none;stroke:#000000;stroke-width:1.00999999;stroke-linecap:round;stroke-linejoin:round;stroke-miterlimit:10;stroke-dasharray:none;stroke-opacity:1"
       d="m 253.40739,238.27371 7.65,0 0,-18.97499 -7.65,0 0,18.97499 z" />
    <path
       inkscape:connector-curvature="0"
       id="path318"
       style="fill:#c0c0c0;fill-opacity:1;fill-rule:evenodd;stroke:none"
       d="m 268.63239,148.79872 0,-19.05001 -3.825,0 0,19.05001 -11.4,0 0,66.97499 11.4,0 0,20.625 3.825,0 0,-20.625 11.4,0 0,-66.97499 -11.4,0" />
    <path
       inkscape:connector-curvature="0"
       id="path320"
       style="fill:none;stroke:#000000;stroke-width:1.00999999;stroke-linecap:round;stroke-linejoin:round;stroke-miterlimit:10;stroke-dasharray:none;stroke-opacity:1"
       d="m 268.63239,148.79872 0,-19.05001 -3.825,0 0,19.05001 -11.4,0 0,66.97499 11.4,0 0,20.625 3.825,0 0,-20.625 11.4,0 0,-66.97499 -11.4,0 z m -11.4,-13.27501 18.975,0 m -18.975,93.225 18.975,0" />
    <path
       inkscape:connector-curvature="0"
       id="path322"
       style="fill:#c0c0c0;fill-opacity:1;fill-rule:nonzero;stroke:none"
       d="m 434.75739,275.39871 41.85,0 0,-26.625 -41.85,0 0,26.625 z" />
    <path
       inkscape:connector-curvature="0"
       id="path324"
       style="fill:none;stroke:#000000;stroke-width:1.00999999;stroke-linecap:round;stroke-linejoin:round;stroke-miterlimit:10;stroke-dasharray:none;stroke-opacity:1"
       d="m 434.75739,275.39871 41.85,0 0,-26.625 -41.85,0 0,26.625 z" />
    <path
       inkscape:connector-curvature="0"
       id="path326"
       style="fill:#808080;fill-opacity:1;fill-rule:evenodd;stroke:none"
       d="m 483.35739,259.64871 5.175,-1.34999 -3.525,-12.82501 -5.175,1.35 3.525,12.825" />
    <path
       inkscape:connector-curvature="0"
       id="path328"
       style="fill:none;stroke:#000000;stroke-width:1.00999999;stroke-linecap:round;stroke-linejoin:round;stroke-miterlimit:10;stroke-dasharray:none;stroke-opacity:1"
       d="m 483.35739,259.64871 5.175,-1.34999 -3.525,-12.82501 -5.175,1.35 3.525,12.825 z" />
    <path
       inkscape:connector-curvature="0"
       id="path330"
       style="fill:#808080;fill-opacity:1;fill-rule:evenodd;stroke:none"
       d="m 429.43239,259.42372 4.05,-3.45001 -8.55,-10.275 -4.125,3.525 8.625,10.20001" />
    <path
       inkscape:connector-curvature="0"
       id="path332"
       style="fill:none;stroke:#000000;stroke-width:1.00999999;stroke-linecap:round;stroke-linejoin:round;stroke-miterlimit:10;stroke-dasharray:none;stroke-opacity:1"
       d="m 429.43239,259.42372 4.05,-3.45001 -8.55,-10.275 -4.125,3.525 8.625,10.20001 z" />
    <path
       inkscape:connector-curvature="0"
       id="path334"
       style="fill:#808080;fill-opacity:1;fill-rule:nonzero;stroke:none"
       d="m 481.55739,278.32371 5.25,0 0,-13.425 -5.25,0 0,13.425 z" />
    <path
       inkscape:connector-curvature="0"
       id="path336"
       style="fill:none;stroke:#000000;stroke-width:1.00999999;stroke-linecap:round;stroke-linejoin:round;stroke-miterlimit:10;stroke-dasharray:none;stroke-opacity:1"
       d="m 481.55739,278.32371 5.25,0 0,-13.425 -5.25,0 0,13.425 z" />
    <path
       inkscape:connector-curvature="0"
       id="path338"
       style="fill:#808080;fill-opacity:1;fill-rule:nonzero;stroke:none"
       d="m 424.48239,278.32371 5.325,0 0,-13.425 -5.325,0 0,13.425 z" />
    <path
       inkscape:connector-curvature="0"
       id="path340"
       style="fill:none;stroke:#000000;stroke-width:1.00999999;stroke-linecap:round;stroke-linejoin:round;stroke-miterlimit:10;stroke-dasharray:none;stroke-opacity:1"
       d="m 424.48239,278.32371 5.325,0 0,-13.425 -5.325,0 0,13.425 z m 2.7,-25.72499 56.925,0 m -56.925,18.97499 56.925,0 m -238.275,12.22501 233.475,0" />
    <path
       inkscape:connector-curvature="0"
       id="path342"
       style="fill:none;stroke:#000000;stroke-width:0.33625001;stroke-linecap:round;stroke-linejoin:round;stroke-miterlimit:10;stroke-dasharray:none;stroke-opacity:1"
       d="m 245.83239,283.79872 0,3.14999 m 0,-2.925 27.9,0 0,3.075 m -22.35,-0.82499 0,-2.25001 m 5.625,2.25001 0,-2.25001 m 5.475,2.25001 0,-2.25001 m 5.625,2.25001 0,-2.25001 m 5.625,0 27.825,0 0,3.075 m -22.35,-0.82499 0,-2.25001 m 5.625,2.25001 0,-2.25001 m 5.625,2.25001 0,-2.25001 m 5.475,2.25001 0,-2.25001 m 5.625,0 27.825,0 0,3.075 m -22.2,-0.82499 0,-2.25001 m 5.475,2.25001 0,-2.25001 m 5.625,2.25001 0,-2.25001 m 5.625,2.25001 0,-2.25001 m 5.475,0 27.975,0 0,3.075 m -22.35,-0.82499 0,-2.25001 m 5.625,2.25001 0,-2.25001 m 5.475,2.25001 0,-2.25001 m 5.625,2.25001 0,-2.25001 m 5.625,0 27.825,0 0,3.075 m -22.35,-0.82499 0,-2.25001 m 5.625,2.25001 0,-2.25001 m 5.625,2.25001 0,-2.25001 m 5.475,2.25001 0,-2.25001 m 5.625,0 27.9,0 0,3.075 m -22.275,-0.82499 0,-2.25001 m 5.55,2.25001 0,-2.25001 m 5.55,2.25001 0,-2.25001 m 5.625,2.25001 0,-2.25001 m 5.55,0 27.9,0 0,3.075 m -22.35,-0.82499 0,-2.25001 m 5.625,2.25001 0,-2.25001 m 5.55,2.25001 0,-2.25001 m 5.625,2.25001 0,-2.25001 m 5.55,0 27.9,0 0,3.075 m -22.35,-0.82499 0,-2.25001 m 5.625,2.25001 0,-2.25001 m 5.55,2.25001 0,-2.25001 m 5.55,2.25001 0,-2.25001 m 5.625,0 27.825,0 0,3.075 m -22.2,-0.82499 0,-2.25001 m 5.475,2.25001 0,-2.25001 m 5.625,2.25001 0,-2.25001 m 5.625,2.25001 0,-2.25001 m -161.85,-0.22499 27.975,0 0,-161.775 -27.975,0 0,161.775 z m 61.425,0 27.975,0 0,-161.775 -27.975,0 0,161.775 z" />
  </g>
</svg>
